<svg xmlns="http://www.w3.org/2000/svg" xmlns:xlink="http://www.w3.org/1999/xlink" viewBox="0 0 354.57 84.61"><defs><style>.cls-1{fill:none;}.cls-2{fill:#1d1d1b;}.cls-3{fill:#169fdb;}.cls-4{fill:#1fa138;}.cls-5{clip-path:url(#clip-path);}</style><clipPath id="clip-path" transform="translate(-356.67 -253.03)"><rect class="cls-1" width="841.89" height="595.28"/></clipPath></defs><g id="Warstwa_2" data-name="Warstwa 2"><g id="Warstwa_1-2" data-name="Warstwa 1"><polygon class="cls-2" points="275.69 16.66 283.69 16.66 283.69 18.56 272.83 18.56 272.83 16.85 280.38 6.88 272.94 6.88 272.94 4.95 283.31 4.95 283.31 6.6 275.69 16.66"/><path class="cls-3" d="M383.24,322c-9.81-.44-18.11-7.6-22.3-13.88-10.33-15.48-1.83-37.86,24.81-40.35a97.43,97.43,0,0,1,13.84.36c6.61.57,9.69,2.3,11.5,4,4.67,3.45,4.17,6.92-3.06,7-3.75.1-14.89-.91-16.54-.34-5.29,2.32-9.29,4.45-13.43,8.19a26.7,26.7,0,0,0-6.84,7.39c-2.13,3.8-1.79,7.48,1.85,10.48a24.23,24.23,0,0,0,8.48,4.21,66.42,66.42,0,0,0,8.69,1.89,98.26,98.26,0,0,0,11.11.52c8.19-.18,7.28,1.61-.06,6.77-4.44,2.12-8.22,4.23-18.05,3.79" transform="translate(-356.67 -253.03)"/><path class="cls-4" d="M416.89,304.81c-8.52-10.4-4.62-21.74,4.67-26.13a44.77,44.77,0,0,1,14.73-3.49,69.26,69.26,0,0,1,8.27-.27,2.94,2.94,0,0,1,2.1.8c1.84,2,2.95,3,4.16,5.67.7,1.84-.83,3-2.19,3.16s-3,0-4.94.05a42.71,42.71,0,0,0-7.8.5c-13.1,3-14.23,7.67-12.57,13.49.87,1.85,2.77,2.93,5.2,3.42,2.21.44,4.93.1,7.53,0,.8,0,1.54,0,2.22,0s1.35,0,1.93.06c5.57.12,4.75,4.17-1.42,7.24-4.18,2.67-11,3.77-13.21,2.75a38.62,38.62,0,0,1-8.68-7.28" transform="translate(-356.67 -253.03)"/><path class="cls-3" d="M421.31,278.76c-.4-.41-1.23-1.09-1.9-1.71-1.07-1.17-.67-2.1,2.13-2.15a10.42,10.42,0,0,1,6,1.7c2,1.2,4.58,4.14,7.07,8.77s2.7,12.54,1,16.66c-1,2.54-2.07,3.8-4.14,6-1.44,1.53-4.51,3.12-5.93,3.82-5.76,2.54-11.15,2.72-14.37,1.85-1.81-.49-2.61-2.37-.68-3.27a47.39,47.39,0,0,0,7.07-4.87,34.18,34.18,0,0,0,6.1-6c1.65-2.25,1.91-6.38,1.57-10.09s-1.72-8.38-4-10.7" transform="translate(-356.67 -253.03)"/><path class="cls-4" d="M416.89,304.81c-8.52-10.4-4.62-21.74,4.67-26.13a44.77,44.77,0,0,1,14.73-3.49,69.26,69.26,0,0,1,8.27-.27,2.94,2.94,0,0,1,2.1.8c1.84,2,2.95,3,4.16,5.67.7,1.84-.83,3-2.19,3.16s-3,0-4.94.05a42.71,42.71,0,0,0-7.8.5c-13.1,3-14.23,7.67-12.57,13.49a5.4,5.4,0,0,0,.48.81,29.17,29.17,0,0,1-6.19,6.18l-.72-.77" transform="translate(-356.67 -253.03)"/><path class="cls-4" d="M455,310c-5.1-1.58-7.56-4.08-8.56-5.74-.25-.29-.17-.34.22-.47a19.86,19.86,0,0,0,6.18-4.24,52.27,52.27,0,0,0,6.55-6.88c.48-.86,0-3.3-.22-3.65a39.44,39.44,0,0,1-3.3-5.81c-2.4-6.91,4.43-7.46,8.37-2.78a27.32,27.32,0,0,1,2.64,4.07,16.54,16.54,0,0,1,2,5.34c1,5.16-.18,11-2.57,14.34a9.12,9.12,0,0,1-1.2,1.33c-4.12,3.65-8.86,4.85-10.07,4.49" transform="translate(-356.67 -253.03)"/><path class="cls-3" d="M489.92,330.65a4.71,4.71,0,0,0,2.37-.74,7,7,0,0,0,2.17-2,4.07,4.07,0,0,0,.9-2.43q0-1.71-.81-1.71c-.54,0-1.26.46-2.18,1.38a9.72,9.72,0,0,0-2.18,3.57l-.48,1.89Zm5.05-8.6a1.82,1.82,0,0,1,1.53,1.13,4.55,4.55,0,0,1,.66,2.33,4.71,4.71,0,0,1-.71,2.4,9.45,9.45,0,0,1-1.73,2.15,10,10,0,0,1-2.29,1.57,5.16,5.16,0,0,1-2.3.63,2.9,2.9,0,0,1-.79-.11c0,.24-.15.65-.29,1.26s-.25,1.1-.35,1.5-.21.82-.33,1.27c-.25.93-.47,1.4-.66,1.4s-.4-.15-.61-.44a1.45,1.45,0,0,1-.32-.79,26,26,0,0,1,.66-3q2-8,2-10.77c0-.41.16-.62.46-.62a1.41,1.41,0,0,1,.9.55,1.69,1.69,0,0,1,.53,1.2,3.22,3.22,0,0,1-.09.72q1.84-2.39,3.75-2.38" transform="translate(-356.67 -253.03)"/><path class="cls-3" d="M499.33,324.61l-.07-1.54c0-.64.16-1,.46-1a1,1,0,0,1,.75.5,2,2,0,0,1,.36,1.19,9.06,9.06,0,0,1,0,1q1.8-2.71,3.41-2.71c.68,0,1,.16,1,.49a.59.59,0,0,1-.23.45,3.68,3.68,0,0,1-.72.48,4.49,4.49,0,0,0-1.85,1.45,8.27,8.27,0,0,0-1.23,2.2c-.32.83-.57,1.52-.76,2.08s-.33,1-.42,1.31-.21.63-.33.93c-.22.55-.48.82-.77.82a.65.65,0,0,1-.57-.4,1.69,1.69,0,0,1-.21-.78,6.2,6.2,0,0,1,.35-1.51,16.35,16.35,0,0,0,.85-5" transform="translate(-356.67 -253.03)"/><path class="cls-3" d="M506.31,322.32a11.63,11.63,0,0,1,2.49-.21,6.88,6.88,0,0,1,2.6.41,1.87,1.87,0,0,1,.83.75,1.78,1.78,0,0,1,.39.93,2.81,2.81,0,0,1-1,1.79,13.72,13.72,0,0,1-2.1,1.79q-1.14.78-2.1,1.5t-1,1c0,.24.18.35.54.35.78,0,1.75,0,2.89-.16s1.83-.17,2.05-.17c.53,0,.8.16.8.48s-.69.81-2.07,1.11a18.61,18.61,0,0,1-4,.45,2.39,2.39,0,0,1-1.64-.67,1.8,1.8,0,0,1-.74-1.22c0-.37.35-.87,1-1.49a22.07,22.07,0,0,1,2.29-1.78c2.21-1.53,3.33-2.49,3.33-2.88s-.71-.39-2.11-.39a8.56,8.56,0,0,0-1.29.12,9.39,9.39,0,0,1-1.1.11,1,1,0,0,1-.72-.43,1.24,1.24,0,0,1-.39-.74c0-.26.3-.46.91-.61" transform="translate(-356.67 -253.03)"/><path class="cls-3" d="M522.1,322.11c.23,0,.46.16.72.48a1.71,1.71,0,0,1,.38,1.08,15.32,15.32,0,0,1-.85,2.79l-1.14,3.24c-.2.57-.47,1.32-.81,2.26s-.67,1.85-1,2.74c-.69,2-1.73,2.94-3.1,2.94a4,4,0,0,1-2.26-.71c-.71-.47-1.07-1-1.07-1.47a1.1,1.1,0,0,1,.26-.63c.17-.24.32-.35.44-.35s.32.15.6.45c.8.9,1.48,1.36,2.05,1.36.42,0,.81-.38,1.15-1.12a23.08,23.08,0,0,0,1-2.53l.51-1.55c0-.1.08-.22.13-.37l.13-.41c-1,1.32-1.94,2-2.89,2a2.16,2.16,0,0,1-1.6-.8,2.73,2.73,0,0,1-.74-1.89,11.12,11.12,0,0,1,.54-2.94,17.33,17.33,0,0,1,1.26-3.21c.48-.9.88-1.35,1.18-1.35a.92.92,0,0,1,.69.34,1,1,0,0,1,.32.68,4.7,4.7,0,0,1-.53,1.46,13.3,13.3,0,0,0-1.68,5.3.75.75,0,0,0,.21.55.67.67,0,0,0,.49.21c.5,0,1.09-.43,1.78-1.31a17.1,17.1,0,0,0,1.9-3.12,34.81,34.81,0,0,0,1.51-3.89.39.39,0,0,1,.41-.22" transform="translate(-356.67 -253.03)"/><path class="cls-3" d="M526.63,319.19a1.15,1.15,0,0,1,.33-.78.92.92,0,0,1,.69-.37c.23,0,.5.28.81.83a3.07,3.07,0,0,1,.47,1.39.52.52,0,0,1-.19.37.55.55,0,0,1-.37.16,1.78,1.78,0,0,1-1.12-.59,1.65,1.65,0,0,1-.62-1M520,335.09c.59.76,1.08,1.13,1.47,1.13a1.14,1.14,0,0,0,1-.61,7.85,7.85,0,0,0,.76-1.94c.25-.89.48-1.8.7-2.73s.51-2.16.86-3.7.7-2.91,1-4.13c.21-.67.41-1,.61-1a1,1,0,0,1,.72.44,1.43,1.43,0,0,1,.37,1,18.3,18.3,0,0,1-.64,2.86c-.43,1.6-.81,3-1.14,4.31s-.65,2.52-1,3.74c-.59,2.15-1.67,3.22-3.22,3.22a3.08,3.08,0,0,1-2-.86c-.65-.58-1-1.07-1-1.48a1.22,1.22,0,0,1,.22-.63c.14-.24.28-.36.4-.36a.65.65,0,0,1,.47.3l.4.48" transform="translate(-356.67 -253.03)"/><path class="cls-3" d="M535.42,325.72c0-1.27-.26-1.91-.77-1.91a2.93,2.93,0,0,0-1.88,1.14,11.64,11.64,0,0,0-1.82,2.58,5.5,5.5,0,0,0-.74,2.28.69.69,0,0,0,.29.57,1.12,1.12,0,0,0,.68.21,3.28,3.28,0,0,0,2.19-1.3,7.1,7.1,0,0,0,1.7-3.18.44.44,0,0,1,.35-.37Zm.76-2.68a2.76,2.76,0,0,1,.79,1.69,2.73,2.73,0,0,1-.52,1.53.87.87,0,0,1,.25.53,11.69,11.69,0,0,1-.26,2c-.17.94-.27,1.55-.31,1.83s-.06.52-.09.69-.06.34-.1.51c-.06.34-.18.51-.38.51s-.45-.22-.61-.65a5.65,5.65,0,0,1-.27-1.67c-1.23,1.54-2.37,2.32-3.42,2.32a2.85,2.85,0,0,1-1.87-.81,2.29,2.29,0,0,1-.92-1.68,7.26,7.26,0,0,1,.91-3.05,12.37,12.37,0,0,1,2.36-3.24,4.08,4.08,0,0,1,2.73-1.41,2.23,2.23,0,0,1,1.71.93" transform="translate(-356.67 -253.03)"/><path class="cls-3" d="M542,332.3a3.33,3.33,0,0,1-2.26-.94,2.88,2.88,0,0,1-1.06-2.21,6.76,6.76,0,0,1,.87-3,9.42,9.42,0,0,1,2.25-2.88,4.14,4.14,0,0,1,2.67-1.19,1.88,1.88,0,0,1,1.49.76,2.18,2.18,0,0,1,.64,1.33.39.39,0,0,1-.1.28.37.37,0,0,1-.3.11,1.52,1.52,0,0,1-.69-.37,1.6,1.6,0,0,0-.89-.37c-.75,0-1.61.66-2.61,2a5.94,5.94,0,0,0-1.48,3.41,1.27,1.27,0,0,0,.4,1,1.87,1.87,0,0,0,1.3.37,6.24,6.24,0,0,0,1.66-.21,7.12,7.12,0,0,0,1.16-.43,1.5,1.5,0,0,1,.64-.22.35.35,0,0,1,.4.39c0,.4-.48.86-1.44,1.39a5.53,5.53,0,0,1-2.65.79" transform="translate(-356.67 -253.03)"/><path class="cls-3" d="M550.51,319.19a1.15,1.15,0,0,1,.33-.78.91.91,0,0,1,.67-.37c.23,0,.5.28.82.83a3,3,0,0,1,.47,1.39.49.49,0,0,1-.18.37.6.6,0,0,1-.39.16,1.74,1.74,0,0,1-1.11-.59,1.62,1.62,0,0,1-.61-1m-.1,2.92a.94.94,0,0,1,.74.47,1.5,1.5,0,0,1,.35.92,17.1,17.1,0,0,1-.6,2.71q-.6,2.25-1.51,5c-.23.69-.53,1-.88,1a.63.63,0,0,1-.5-.24.77.77,0,0,1-.21-.53,4.26,4.26,0,0,1,.16-.95c.1-.43.25-1,.45-1.72s.36-1.31.48-1.76.24-1,.36-1.53.22-1,.3-1.38.16-.7.26-1.06c.19-.67.39-1,.6-1" transform="translate(-356.67 -253.03)"/><path class="cls-3" d="M557.91,323.73a2.4,2.4,0,0,0-1.59.79,7.09,7.09,0,0,0-1.41,2,8.24,8.24,0,0,0,1.88.19,4.51,4.51,0,0,0,1.84-.34c.53-.23.79-.52.79-.89a1.72,1.72,0,0,0-.51-1.13,1.36,1.36,0,0,0-1-.58m3.12,1.78a2,2,0,0,1-1.19,1.79,5.34,5.34,0,0,1-2.68.68,10.86,10.86,0,0,1-2.72-.32,5.14,5.14,0,0,0-.29,1.61,1.38,1.38,0,0,0,.44,1.1,2.23,2.23,0,0,0,1.47.39,6.68,6.68,0,0,0,2.11-.36,10.26,10.26,0,0,1,1.19-.36c.36,0,.54.14.54.41s-.42.77-1.27,1.2a5.39,5.39,0,0,1-2.46.65,3.65,3.65,0,0,1-2.62-1,3.15,3.15,0,0,1-1-2.41,7,7,0,0,1,.79-3.05,8.56,8.56,0,0,1,2-2.68,3.72,3.72,0,0,1,2.46-1.09,2.91,2.91,0,0,1,2.22,1.15,3.47,3.47,0,0,1,1,2.25" transform="translate(-356.67 -253.03)"/><path class="cls-3" d="M566.16,318.08a41.84,41.84,0,0,1-1.61,10c-.7,2.79-1.18,4.19-1.45,4.19s-.42-.15-.67-.45a1.31,1.31,0,0,1-.39-.7,24.57,24.57,0,0,1,.6-2.55q.6-2.3,1.2-5.66a34.78,34.78,0,0,0,.6-6.05.82.82,0,0,1,.08-.41.4.4,0,0,1,.36-.13c.18,0,.43.2.77.59a1.76,1.76,0,0,1,.51,1.14" transform="translate(-356.67 -253.03)"/><path class="cls-3" d="M572.28,323.73a2.44,2.44,0,0,0-1.6.79,6.86,6.86,0,0,0-1.4,2,8.24,8.24,0,0,0,1.88.19,4.54,4.54,0,0,0,1.84-.34c.52-.23.79-.52.79-.89a1.72,1.72,0,0,0-.51-1.13,1.38,1.38,0,0,0-1-.58m3.12,1.78a2,2,0,0,1-1.19,1.79,5.35,5.35,0,0,1-2.69.68,10.91,10.91,0,0,1-2.72-.32,5.44,5.44,0,0,0-.29,1.61,1.38,1.38,0,0,0,.45,1.1,2.21,2.21,0,0,0,1.47.39,6.73,6.73,0,0,0,2.11-.36,10.48,10.48,0,0,1,1.18-.36c.36,0,.54.14.54.41s-.42.77-1.26,1.2a5.39,5.39,0,0,1-2.46.65,3.69,3.69,0,0,1-2.63-1,3.18,3.18,0,0,1-1-2.41,6.82,6.82,0,0,1,.79-3.05,8.53,8.53,0,0,1,2-2.68,3.76,3.76,0,0,1,2.46-1.09,2.88,2.88,0,0,1,2.22,1.15,3.49,3.49,0,0,1,1,2.25" transform="translate(-356.67 -253.03)"/><path class="cls-3" d="M591,325.6a3.86,3.86,0,0,0-.23-1.32,1.83,1.83,0,0,0-.67-.92,4.27,4.27,0,0,0-2.45,2.19,6.89,6.89,0,0,0-1,3.38c0,1.05.26,1.71.79,2a3.87,3.87,0,0,0,2.53-2,6.39,6.39,0,0,0,1-3.28m-5.43.19a7.49,7.49,0,0,1,1.88-2.64,3.57,3.57,0,0,1,2.4-1,2.5,2.5,0,0,1,2,1,3.92,3.92,0,0,1,.83,2.52,7.5,7.5,0,0,1-2.72,5.61,4.24,4.24,0,0,1-2.7,1,2.09,2.09,0,0,1-1.75-1,4,4,0,0,1-.71-2.45,7.5,7.5,0,0,1,.72-3.09" transform="translate(-356.67 -253.03)"/><path class="cls-3" d="M600,322.11a1.7,1.7,0,0,1,1.32.77,2.24,2.24,0,0,1,.62,1.34c0,.24-.11.35-.33.35a1.46,1.46,0,0,1-.7-.36,1.6,1.6,0,0,0-1-.36,3.92,3.92,0,0,0-1.56.58c-.71.38-1.07.79-1.07,1.21s.64.86,1.9,1.62a5.58,5.58,0,0,1,1.32,1.17,2.34,2.34,0,0,1,.58,1.52c0,.54-.37,1.06-1.12,1.58a4.57,4.57,0,0,1-2.63.77,4.84,4.84,0,0,1-2.64-.72c-.77-.48-1.15-.93-1.15-1.36a.64.64,0,0,1,.13-.42.45.45,0,0,1,.35-.15,1.21,1.21,0,0,1,.57.26,3.92,3.92,0,0,0,2.33.81,4.13,4.13,0,0,0,1.75-.28.84.84,0,0,0,.53-.74,1.42,1.42,0,0,0-.6-1,7.73,7.73,0,0,0-1.31-.93,6.65,6.65,0,0,1-1.31-1,1.73,1.73,0,0,1-.6-1.21c0-.73.57-1.48,1.73-2.27a5.46,5.46,0,0,1,2.86-1.18" transform="translate(-356.67 -253.03)"/><path class="cls-3" d="M608.75,321.06a.5.5,0,0,1-.37-.17.69.69,0,0,1-.16-.46,1,1,0,0,1,.26-.6,9.64,9.64,0,0,1,.76-.82l.81-.78c.2-.19.36-.35.46-.46a2.94,2.94,0,0,1,.36-.33,1.12,1.12,0,0,1,.64-.28c.18,0,.36.12.54.38a1.21,1.21,0,0,1,.27.67,1.64,1.64,0,0,1-.05.45.9.9,0,0,1-.25.3,3.36,3.36,0,0,1-.36.27l-1.1.73c-.26.17-.48.33-.66.46l-.39.29a1.83,1.83,0,0,1-.76.35m.41,4.54a3.86,3.86,0,0,0-.23-1.32,1.76,1.76,0,0,0-.66-.92,4.22,4.22,0,0,0-2.45,2.19,6.8,6.8,0,0,0-1,3.38c0,1.05.26,1.71.79,2a3.85,3.85,0,0,0,2.53-2,6.39,6.39,0,0,0,1-3.28m-5.43.19a7.49,7.49,0,0,1,1.88-2.64,3.57,3.57,0,0,1,2.4-1,2.5,2.5,0,0,1,2,1,3.86,3.86,0,0,1,.83,2.52,7.15,7.15,0,0,1-.72,3,7,7,0,0,1-2,2.57,4.23,4.23,0,0,1-2.69,1,2.09,2.09,0,0,1-1.76-1,4,4,0,0,1-.7-2.45,7.48,7.48,0,0,1,.71-3.09" transform="translate(-356.67 -253.03)"/><path class="cls-3" d="M616.43,330.72c.9,0,1.77-.61,2.64-1.82a6.51,6.51,0,0,0,1.29-3.83c0-.81-.25-1.22-.75-1.22a4,4,0,0,0-2.67,1.67,16.37,16.37,0,0,0-2.56,4,2.67,2.67,0,0,0,2,1.24m-3.29,1.58a1.06,1.06,0,0,1-.68-.44,1.31,1.31,0,0,1-.39-.83,18.27,18.27,0,0,1,.65-2.68q.66-2.28,1.3-5.49a29.49,29.49,0,0,0,.65-5.89c0-.41.16-.62.46-.62s.49.21.8.61a1.91,1.91,0,0,1,.48,1.18,33.29,33.29,0,0,1-1.12,7.21q2.46-3.3,4.47-3.3a2,2,0,0,1,1.64.94,3.77,3.77,0,0,1,.67,2.25,7.49,7.49,0,0,1-.75,3,8.8,8.8,0,0,1-2,2.89,3.5,3.5,0,0,1-5.45-.22l0,0c-.31.92-.53,1.38-.67,1.38" transform="translate(-356.67 -253.03)"/><path class="cls-3" d="M637.31,322.11a1.7,1.7,0,0,1,1.32.77,2.24,2.24,0,0,1,.62,1.34c0,.24-.11.35-.33.35a1.46,1.46,0,0,1-.7-.36,1.6,1.6,0,0,0-1-.36,4,4,0,0,0-1.56.58c-.71.38-1.07.79-1.07,1.21s.64.86,1.91,1.62a5.74,5.74,0,0,1,1.31,1.17,2.35,2.35,0,0,1,.59,1.52c0,.54-.38,1.06-1.13,1.58a4.57,4.57,0,0,1-2.63.77,4.86,4.86,0,0,1-2.64-.72c-.77-.48-1.15-.93-1.15-1.36a.64.64,0,0,1,.14-.42.43.43,0,0,1,.34-.15,1.23,1.23,0,0,1,.58.26,3.87,3.87,0,0,0,2.32.81,4.13,4.13,0,0,0,1.75-.28.84.84,0,0,0,.54-.74,1.42,1.42,0,0,0-.6-1,7.82,7.82,0,0,0-1.32-.93,6.65,6.65,0,0,1-1.31-1,1.73,1.73,0,0,1-.6-1.21c0-.73.58-1.48,1.73-2.27a5.46,5.46,0,0,1,2.86-1.18" transform="translate(-356.67 -253.03)"/><path class="cls-3" d="M642.52,330.24c0,.26.15.39.46.39a5.3,5.3,0,0,0,1.91-.44,9.53,9.53,0,0,1,1.25-.44c.25,0,.37.13.37.39s-.41.86-1.23,1.38a4.26,4.26,0,0,1-2.23.78,2.53,2.53,0,0,1-1.67-.55,1.49,1.49,0,0,1-.66-1.12,5.92,5.92,0,0,1,.25-1.46c.17-.6.4-1.39.72-2.37s.55-1.79.73-2.43a7.06,7.06,0,0,1-1.31.22.89.89,0,0,1-.64-.34,1,1,0,0,1-.33-.64c0-.33.9-.65,2.69-.95a14.22,14.22,0,0,0,.37-3c0-.41.14-.61.42-.61a1.47,1.47,0,0,1,.87.44,1.28,1.28,0,0,1,.51,1,9.24,9.24,0,0,1-.35,2c.79-.07,1.41-.11,1.88-.11.83,0,1.24.18,1.24.54,0,.2-.22.37-.67.51s-1.39.35-2.82.64c-.29,1.08-.66,2.32-1.1,3.71a13.47,13.47,0,0,0-.66,2.53" transform="translate(-356.67 -253.03)"/><path class="cls-3" d="M654.66,325.72c0-1.27-.26-1.91-.77-1.91A2.91,2.91,0,0,0,652,325a11.32,11.32,0,0,0-1.82,2.58,5.36,5.36,0,0,0-.74,2.28.66.66,0,0,0,.29.57,1.12,1.12,0,0,0,.68.21,3.3,3.3,0,0,0,2.19-1.3,7.09,7.09,0,0,0,1.69-3.18.44.44,0,0,1,.36-.37Zm.76-2.68a2.33,2.33,0,0,1,.27,3.22.87.87,0,0,1,.25.53,12.87,12.87,0,0,1-.26,2c-.17.94-.28,1.55-.31,1.83s-.07.52-.09.69-.07.34-.11.51c0,.34-.18.51-.37.51s-.45-.22-.61-.65a5.61,5.61,0,0,1-.28-1.67c-1.23,1.54-2.36,2.32-3.41,2.32a2.83,2.83,0,0,1-1.87-.81,2.29,2.29,0,0,1-.92-1.68,7.11,7.11,0,0,1,.91-3.05,12.14,12.14,0,0,1,2.36-3.24,4.08,4.08,0,0,1,2.72-1.41,2.25,2.25,0,0,1,1.72.93" transform="translate(-356.67 -253.03)"/><path class="cls-3" d="M659.14,324.61l-.06-1.54c0-.64.15-1,.46-1a1,1,0,0,1,.75.5,2,2,0,0,1,.36,1.19,9.06,9.06,0,0,1,0,1c1.2-1.81,2.33-2.71,3.41-2.71.68,0,1,.16,1,.49a.58.58,0,0,1-.22.45,4.17,4.17,0,0,1-.73.48,4.56,4.56,0,0,0-1.85,1.45,8.86,8.86,0,0,0-1.23,2.2c-.32.83-.57,1.52-.75,2.08s-.33,1-.43,1.31a7.32,7.32,0,0,1-.33.93c-.22.55-.47.82-.76.82a.63.63,0,0,1-.57-.4,1.71,1.71,0,0,1-.22-.78,6.74,6.74,0,0,1,.35-1.51,16.05,16.05,0,0,0,.85-5" transform="translate(-356.67 -253.03)"/><path class="cls-3" d="M670.66,322.11a1.73,1.73,0,0,1,1.32.77,2.3,2.3,0,0,1,.62,1.34c0,.24-.11.35-.33.35a1.44,1.44,0,0,1-.71-.36,1.58,1.58,0,0,0-1-.36,4,4,0,0,0-1.56.58c-.71.38-1.06.79-1.06,1.21s.63.86,1.9,1.62a5.54,5.54,0,0,1,1.31,1.17,2.35,2.35,0,0,1,.59,1.52c0,.54-.37,1.06-1.12,1.58a4.6,4.6,0,0,1-2.63.77,4.9,4.9,0,0,1-2.65-.72c-.76-.48-1.14-.93-1.14-1.36a.64.64,0,0,1,.13-.42.43.43,0,0,1,.34-.15,1.2,1.2,0,0,1,.58.26,3.9,3.9,0,0,0,2.33.81,4.11,4.11,0,0,0,1.74-.28.84.84,0,0,0,.54-.74,1.42,1.42,0,0,0-.6-1,8.15,8.15,0,0,0-1.31-.93,6.37,6.37,0,0,1-1.31-1,1.75,1.75,0,0,1-.61-1.21c0-.73.58-1.48,1.73-2.27a5.49,5.49,0,0,1,2.87-1.18" transform="translate(-356.67 -253.03)"/><path class="cls-3" d="M674.93,322.32a11.67,11.67,0,0,1,2.5-.21,6.86,6.86,0,0,1,2.59.41,1.94,1.94,0,0,1,.84.75,1.83,1.83,0,0,1,.38.93,2.81,2.81,0,0,1-1,1.79,13.25,13.25,0,0,1-2.1,1.79q-1.14.78-2.1,1.5t-1,1c0,.24.18.35.54.35.78,0,1.75,0,2.89-.16s1.83-.17,2.05-.17q.81,0,.81.48,0,.66-2.07,1.11a18.77,18.77,0,0,1-4,.45,2.36,2.36,0,0,1-1.63-.67,1.78,1.78,0,0,1-.75-1.22c0-.37.35-.87,1-1.49a20.92,20.92,0,0,1,2.28-1.78q3.33-2.29,3.33-2.88c0-.26-.71-.39-2.11-.39a8.56,8.56,0,0,0-1.28.12,9.51,9.51,0,0,1-1.11.11,1,1,0,0,1-.72-.43,1.21,1.21,0,0,1-.38-.74c0-.26.3-.46.9-.61" transform="translate(-356.67 -253.03)"/><path class="cls-3" d="M690.73,322.11a1,1,0,0,1,.71.48,1.66,1.66,0,0,1,.38,1.08,15.77,15.77,0,0,1-.84,2.79c-.57,1.59-1,2.67-1.15,3.24S689.36,331,689,332s-.66,1.85-1,2.74q-1,2.94-3.1,2.94a3.94,3.94,0,0,1-2.25-.71q-1.08-.71-1.08-1.47a1.1,1.1,0,0,1,.26-.63c.17-.24.32-.35.44-.35s.33.15.6.45c.8.9,1.49,1.36,2.05,1.36s.81-.38,1.16-1.12a25.37,25.37,0,0,0,1-2.53c.31-.94.48-1.46.52-1.55l.12-.37c0-.15.09-.29.14-.41-1,1.32-2,2-2.9,2a2.16,2.16,0,0,1-1.6-.8,2.72,2.72,0,0,1-.73-1.89,11,11,0,0,1,.53-2.94,17.33,17.33,0,0,1,1.26-3.21c.49-.9.88-1.35,1.18-1.35a1,1,0,0,1,.7.34,1,1,0,0,1,.32.68,4.55,4.55,0,0,1-.54,1.46,13.3,13.3,0,0,0-1.68,5.3.75.75,0,0,0,.21.55.67.67,0,0,0,.5.21c.49,0,1.08-.43,1.77-1.31a17.11,17.11,0,0,0,1.91-3.12,35,35,0,0,0,1.5-3.89c.06-.15.2-.22.42-.22" transform="translate(-356.67 -253.03)"/><path class="cls-3" d="M695.68,332.3a3.31,3.31,0,0,1-2.26-.94,2.84,2.84,0,0,1-1.06-2.21,6.63,6.63,0,0,1,.87-3,9.54,9.54,0,0,1,2.24-2.88,4.18,4.18,0,0,1,2.68-1.19,1.91,1.91,0,0,1,1.49.76,2.18,2.18,0,0,1,.64,1.33.43.43,0,0,1-.1.28.37.37,0,0,1-.3.11,1.54,1.54,0,0,1-.7-.37,1.58,1.58,0,0,0-.89-.37c-.74,0-1.61.66-2.6,2a6,6,0,0,0-1.49,3.41,1.28,1.28,0,0,0,.41,1,1.85,1.85,0,0,0,1.3.37,6.11,6.11,0,0,0,1.65-.21,7.68,7.68,0,0,0,1.17-.43,1.46,1.46,0,0,1,.64-.22.34.34,0,0,1,.39.39c0,.4-.48.86-1.44,1.39a5.47,5.47,0,0,1-2.64.79" transform="translate(-356.67 -253.03)"/><path class="cls-3" d="M704,317.16c0-.54.16-.81.5-.81s.54.21.83.62a2,2,0,0,1,.45,1.19,25.93,25.93,0,0,1-.68,4.55,55.53,55.53,0,0,1-1.74,6.42,36.46,36.46,0,0,1,3.46-5.37c.93-1.1,1.73-1.65,2.39-1.65.36,0,.77.31,1.25.92a3.08,3.08,0,0,1,.71,1.85,11.49,11.49,0,0,1-.51,2.77q-1.29,4.65-2.42,4.65c-.31,0-.46-.21-.46-.62a7.64,7.64,0,0,1,.5-2.07,16.8,16.8,0,0,0,1.09-4.3,1,1,0,0,0-.18-.61.56.56,0,0,0-.46-.25,1.22,1.22,0,0,0-.66.29,5.5,5.5,0,0,0-.95,1c-.47.62-1,1.31-1.46,2.08l-.91,1.39c-.1.15-.28.44-.53.85l-.57.91c-.13.2-.28.42-.46.65-.32.45-.56.68-.72.68s-.39-.15-.66-.46a1.31,1.31,0,0,1-.42-.78,6.11,6.11,0,0,1,.23-1.21q1-3.94,1.3-5.4a44.9,44.9,0,0,0,1.08-7.29" transform="translate(-356.67 -253.03)"/><path class="cls-2" d="M516.83,263.43a11.39,11.39,0,0,1-4.55-2.19,4.18,4.18,0,0,1-1.42-3.21,4.41,4.41,0,0,1,1.74-3.58,7,7,0,0,1,4.52-1.42,7.63,7.63,0,0,1,3.38.73,5.63,5.63,0,0,1,2.31,2,5.13,5.13,0,0,1,.81,2.8h-2.44a3.34,3.34,0,0,0-1.06-2.62,5.28,5.28,0,0,0-5.8-.16,2.61,2.61,0,0,0-1,2.18,2.36,2.36,0,0,0,1,1.9,9.31,9.31,0,0,0,3.25,1.41,14.92,14.92,0,0,1,3.59,1.42,5.5,5.5,0,0,1,1.92,1.8,4.58,4.58,0,0,1,.63,2.43,4.25,4.25,0,0,1-1.75,3.56,7.41,7.41,0,0,1-4.66,1.34,8.77,8.77,0,0,1-3.55-.72,5.92,5.92,0,0,1-2.53-2,4.77,4.77,0,0,1-.89-2.85h2.44a3.15,3.15,0,0,0,1.23,2.62,5.22,5.22,0,0,0,3.3,1,4.77,4.77,0,0,0,2.94-.78,2.51,2.51,0,0,0,1-2.12,2.47,2.47,0,0,0-1-2.08,11,11,0,0,0-3.44-1.46" transform="translate(-356.67 -253.03)"/><path class="cls-2" d="M529.58,254.69V258h2.55v1.8h-2.55v8.44a1.86,1.86,0,0,0,.34,1.23,1.46,1.46,0,0,0,1.16.41,5.76,5.76,0,0,0,1.12-.15v1.87a6.78,6.78,0,0,1-1.8.25,2.91,2.91,0,0,1-2.36-.94,4,4,0,0,1-.8-2.68v-8.43h-2.49V258h2.49v-3.3Z" transform="translate(-356.67 -253.03)"/><path class="cls-2" d="M536.35,264.94a5.8,5.8,0,0,0,1,3.63,3.58,3.58,0,0,0,5.66,0,6.37,6.37,0,0,0,1.05-3.9A5.71,5.71,0,0,0,543,261a3.39,3.39,0,0,0-2.84-1.39,3.35,3.35,0,0,0-2.79,1.37,6.27,6.27,0,0,0-1.06,3.92m-2.36-.28a8.06,8.06,0,0,1,.79-3.59,5.76,5.76,0,0,1,2.21-2.46,6,6,0,0,1,3.21-.87,5.8,5.8,0,0,1,4.53,1.92,7.38,7.38,0,0,1,1.72,5.12v.16a8.1,8.1,0,0,1-.76,3.57A5.73,5.73,0,0,1,543.5,271a6.07,6.07,0,0,1-3.27.88,5.77,5.77,0,0,1-4.51-1.92,7.34,7.34,0,0,1-1.73-5.09Z" transform="translate(-356.67 -253.03)"/><polygon class="cls-2" points="204.83 15.35 207.46 4.95 209.8 4.95 205.82 18.56 203.92 18.56 200.59 8.25 197.35 18.56 195.46 18.56 191.49 4.95 193.81 4.95 196.51 15.14 199.69 4.95 201.58 4.95 204.83 15.35"/><g class="cls-5"><path class="cls-2" d="M573.42,269.82a4.13,4.13,0,0,0,2.09-.57,3.37,3.37,0,0,0,1.43-1.47V265H575.1c-2.86,0-4.3.84-4.3,2.5a2.11,2.11,0,0,0,.74,1.71,2.82,2.82,0,0,0,1.88.62m3.88,1.77a4.91,4.91,0,0,1-.32-1.43,5.25,5.25,0,0,1-3.9,1.68,4.83,4.83,0,0,1-3.32-1.13,3.66,3.66,0,0,1-1.3-2.89,3.82,3.82,0,0,1,1.63-3.3,7.7,7.7,0,0,1,4.57-1.18h2.28v-1.06a2.62,2.62,0,0,0-.74-1.95,3,3,0,0,0-2.16-.72,3.44,3.44,0,0,0-2.1.63,1.87,1.87,0,0,0-.85,1.52h-2.35a3.19,3.19,0,0,1,.73-2,5,5,0,0,1,2-1.5,6.67,6.67,0,0,1,2.74-.55,5.46,5.46,0,0,1,3.71,1.17,4.29,4.29,0,0,1,1.39,3.24v6.26a7.63,7.63,0,0,0,.48,3v.2Z" transform="translate(-356.67 -253.03)"/><path class="cls-2" d="M589.56,260.08a6.88,6.88,0,0,0-1.15-.09,3.1,3.1,0,0,0-3.13,1.95v9.65H583V258h2.27l0,1.57a3.65,3.65,0,0,1,3.26-1.82,2.55,2.55,0,0,1,1,.17Z" transform="translate(-356.67 -253.03)"/></g><polygon class="cls-2" points="237.24 16.66 245.24 16.66 245.24 18.56 234.38 18.56 234.38 16.85 241.93 6.88 234.49 6.88 234.49 4.95 244.86 4.95 244.86 6.6 237.24 16.66"/><g class="cls-5"><path class="cls-2" d="M609,268.19l3.18-10.2h2.51l-5.5,15.7q-1.29,3.4-4.06,3.4l-.45,0-.87-.16V275l.63.05a3.14,3.14,0,0,0,1.86-.48,3.49,3.49,0,0,0,1.09-1.75l.52-1.38L603.06,258h2.55Z" transform="translate(-356.67 -253.03)"/><path class="cls-2" d="M624.77,268a1.7,1.7,0,0,0-.71-1.46,6.88,6.88,0,0,0-2.49-.9,11.24,11.24,0,0,1-2.82-.91,4.08,4.08,0,0,1-1.55-1.25,3,3,0,0,1-.5-1.74,3.55,3.55,0,0,1,1.43-2.83,5.58,5.58,0,0,1,3.63-1.15,5.78,5.78,0,0,1,3.78,1.19A3.79,3.79,0,0,1,627,262h-2.35a2.11,2.11,0,0,0-.82-1.65,3.07,3.07,0,0,0-2.06-.69,3.18,3.18,0,0,0-2,.55,1.75,1.75,0,0,0-.73,1.45,1.42,1.42,0,0,0,.68,1.27,8.06,8.06,0,0,0,2.42.81,12.76,12.76,0,0,1,2.84.93,4.15,4.15,0,0,1,1.61,1.31,3.16,3.16,0,0,1,.53,1.85,3.46,3.46,0,0,1-1.47,2.92,6.15,6.15,0,0,1-3.81,1.1,7,7,0,0,1-2.91-.57,4.82,4.82,0,0,1-2-1.62,3.84,3.84,0,0,1-.71-2.24h2.34a2.38,2.38,0,0,0,.94,1.85,3.66,3.66,0,0,0,2.32.69,3.78,3.78,0,0,0,2.13-.54,1.62,1.62,0,0,0,.8-1.43" transform="translate(-356.67 -253.03)"/></g><g class="cls-5"><path class="cls-2" d="M648.19,259.65a3.13,3.13,0,0,0-2.38,1,5,5,0,0,0-1.19,2.88h6.86v-.18a4.41,4.41,0,0,0-1-2.75,2.93,2.93,0,0,0-2.32-1m.29,12.19A6,6,0,0,1,644,270a6.69,6.69,0,0,1-1.75-4.86v-.43a8.08,8.08,0,0,1,.78-3.61,6,6,0,0,1,2.18-2.49,5.48,5.48,0,0,1,3-.9,5.14,5.14,0,0,1,4.14,1.74,7.54,7.54,0,0,1,1.48,5v1h-9.27a4.88,4.88,0,0,0,1.18,3.25,3.76,3.76,0,0,0,2.88,1.23,4,4,0,0,0,2.1-.5,5.16,5.16,0,0,0,1.51-1.33l1.43,1.11a5.76,5.76,0,0,1-5.16,2.62" transform="translate(-356.67 -253.03)"/><path class="cls-2" d="M658.73,258l.08,1.71a5,5,0,0,1,4.1-2q4.33,0,4.37,4.86v9H665v-9a3.11,3.11,0,0,0-.68-2.17,2.72,2.72,0,0,0-2.07-.71,3.42,3.42,0,0,0-2,.6,4.23,4.23,0,0,0-1.34,1.59v9.69h-2.34V258Z" transform="translate(-356.67 -253.03)"/><path class="cls-2" d="M673.36,271.59H671V258h2.34Zm-2.53-17.21a1.37,1.37,0,0,1,.34-.95,1.34,1.34,0,0,1,1-.4,1.32,1.32,0,0,1,1,.4,1.34,1.34,0,0,1,.36.95,1.27,1.27,0,0,1-1.39,1.32,1.25,1.25,0,0,1-1.38-1.32" transform="translate(-356.67 -253.03)"/><path class="cls-2" d="M682.49,259.65a3.15,3.15,0,0,0-2.38,1,5,5,0,0,0-1.19,2.88h6.86v-.18a4.46,4.46,0,0,0-1-2.75,3,3,0,0,0-2.33-1m.29,12.19a6,6,0,0,1-4.53-1.81,6.73,6.73,0,0,1-1.74-4.86v-.43a8.22,8.22,0,0,1,.77-3.61,6.08,6.08,0,0,1,2.18-2.49,5.48,5.48,0,0,1,3-.9,5.16,5.16,0,0,1,4.15,1.74,7.54,7.54,0,0,1,1.48,5v1h-9.27a4.83,4.83,0,0,0,1.18,3.25,3.73,3.73,0,0,0,2.88,1.23,4.08,4.08,0,0,0,2.1-.5,5.25,5.25,0,0,0,1.5-1.33l1.43,1.11a5.75,5.75,0,0,1-5.16,2.62" transform="translate(-356.67 -253.03)"/><path class="cls-2" d="M489.18,288.89l.06,1.51a5,5,0,0,1,4.06-1.76,3.9,3.9,0,0,1,3.91,2.18,5.13,5.13,0,0,1,1.78-1.58,5.29,5.29,0,0,1,2.58-.6c3,0,4.53,1.58,4.58,4.74v9.11h-2.34v-9a3.11,3.11,0,0,0-.67-2.18,3,3,0,0,0-2.25-.72,3,3,0,0,0-3.16,2.85v9h-2.36v-8.91c0-2-1-3-2.92-3a3.14,3.14,0,0,0-3.15,1.95v9.93H487v-13.6Z" transform="translate(-356.67 -253.03)"/><path class="cls-2" d="M514.25,300.72a4.07,4.07,0,0,0,2.08-.57,3.32,3.32,0,0,0,1.43-1.47v-2.79h-1.83c-2.87,0-4.3.84-4.3,2.5a2.13,2.13,0,0,0,.73,1.71,2.85,2.85,0,0,0,1.89.62m3.88,1.77a5.18,5.18,0,0,1-.33-1.43,5.22,5.22,0,0,1-3.89,1.68,4.83,4.83,0,0,1-3.32-1.14,3.64,3.64,0,0,1-1.3-2.88,3.82,3.82,0,0,1,1.63-3.3,7.7,7.7,0,0,1,4.57-1.18h2.27v-1.06a2.62,2.62,0,0,0-.73-1.95,3,3,0,0,0-2.16-.72,3.4,3.4,0,0,0-2.1.63,1.83,1.83,0,0,0-.85,1.52h-2.35a3.17,3.17,0,0,1,.73-2,5,5,0,0,1,2-1.5,6.64,6.64,0,0,1,2.74-.55,5.44,5.44,0,0,1,3.7,1.17,4.24,4.24,0,0,1,1.4,3.24v6.26a7.45,7.45,0,0,0,.48,3v.2Z" transform="translate(-356.67 -253.03)"/></g><rect class="cls-2" x="167.3" y="30.14" width="2.34" height="19.31"/><g class="cls-5"><path class="cls-2" d="M532.6,302.49h-2.34v-13.6h2.34Zm-2.53-17.21a1.4,1.4,0,0,1,.35-1,1.31,1.31,0,0,1,1-.39,1.34,1.34,0,0,1,1,.39,1.4,1.4,0,0,1,.35,1,1.33,1.33,0,0,1-.35.94,1.37,1.37,0,0,1-1,.38,1.26,1.26,0,0,1-1.38-1.32" transform="translate(-356.67 -253.03)"/><path class="cls-2" d="M552,295.58a6.2,6.2,0,0,0-.93-3.67,3,3,0,0,0-2.65-1.3,3.43,3.43,0,0,0-3.33,2.14v5.88a3.53,3.53,0,0,0,3.35,2.14,3,3,0,0,0,2.62-1.3,6.66,6.66,0,0,0,.94-3.89m2.33.26a8.06,8.06,0,0,1-1.44,5,4.62,4.62,0,0,1-3.87,1.89,4.77,4.77,0,0,1-4-1.82l-.11,1.57h-2.15V283.18h2.34v7.2a4.76,4.76,0,0,1,3.91-1.74,4.63,4.63,0,0,1,3.91,1.87,8.29,8.29,0,0,1,1.42,5.13Z" transform="translate(-356.67 -253.03)"/><path class="cls-2" d="M563.91,291a8.31,8.31,0,0,0-1.15-.08,3.09,3.09,0,0,0-3.13,1.95v9.65h-2.34v-13.6h2.28l0,1.57a3.62,3.62,0,0,1,3.26-1.82,2.39,2.39,0,0,1,1,.17Z" transform="translate(-356.67 -253.03)"/><path class="cls-2" d="M570.12,300.72a4.13,4.13,0,0,0,2.09-.57,3.35,3.35,0,0,0,1.42-1.47v-2.79H571.8c-2.87,0-4.3.84-4.3,2.5a2.13,2.13,0,0,0,.73,1.71,2.85,2.85,0,0,0,1.89.62m3.88,1.77a5.18,5.18,0,0,1-.33-1.43,5.22,5.22,0,0,1-3.89,1.68,4.83,4.83,0,0,1-3.32-1.14,3.64,3.64,0,0,1-1.3-2.88,3.82,3.82,0,0,1,1.63-3.3,7.7,7.7,0,0,1,4.57-1.18h2.27v-1.06a2.62,2.62,0,0,0-.73-1.95,3,3,0,0,0-2.16-.72,3.4,3.4,0,0,0-2.1.63,1.83,1.83,0,0,0-.85,1.52h-2.35a3.17,3.17,0,0,1,.73-2,5,5,0,0,1,2-1.5,6.64,6.64,0,0,1,2.74-.55,5.44,5.44,0,0,1,3.7,1.17,4.24,4.24,0,0,1,1.4,3.24v6.26a7.63,7.63,0,0,0,.48,3v.2Z" transform="translate(-356.67 -253.03)"/><path class="cls-2" d="M585.13,300.84a3.38,3.38,0,0,0,2.19-.75,2.67,2.67,0,0,0,1-1.89h2.21a4.17,4.17,0,0,1-.81,2.23,5.28,5.28,0,0,1-2,1.68,5.77,5.77,0,0,1-2.64.63,5.66,5.66,0,0,1-4.44-1.85,7.37,7.37,0,0,1-1.65-5.07v-.39a8.15,8.15,0,0,1,.73-3.54,5.55,5.55,0,0,1,2.11-2.4,6,6,0,0,1,3.24-.85A5.49,5.49,0,0,1,589,290a4.9,4.9,0,0,1,1.62,3.55h-2.21a3.15,3.15,0,0,0-1-2.16,3.1,3.1,0,0,0-2.23-.85,3.3,3.3,0,0,0-2.77,1.27,6,6,0,0,0-1,3.69V296a5.82,5.82,0,0,0,1,3.62,3.29,3.29,0,0,0,2.78,1.27" transform="translate(-356.67 -253.03)"/><path class="cls-2" d="M595.74,302.49h-2.33v-13.6h2.33Zm-2.52-17.21a1.39,1.39,0,0,1,.34-1,1.57,1.57,0,0,1,2.07,0,1.36,1.36,0,0,1,.36,1,1.3,1.3,0,0,1-.36.94,1.6,1.6,0,0,1-2.07,0,1.33,1.33,0,0,1-.34-.94" transform="translate(-356.67 -253.03)"/><path class="cls-2" d="M604.06,300.72a4.07,4.07,0,0,0,2.08-.57,3.32,3.32,0,0,0,1.43-1.47v-2.79h-1.83c-2.87,0-4.3.84-4.3,2.5a2.1,2.1,0,0,0,.73,1.71,2.85,2.85,0,0,0,1.89.62m3.88,1.77a4.53,4.53,0,0,1-.33-1.43,5.25,5.25,0,0,1-3.9,1.68,4.85,4.85,0,0,1-3.32-1.14,3.66,3.66,0,0,1-1.29-2.88,3.83,3.83,0,0,1,1.62-3.3,7.72,7.72,0,0,1,4.57-1.18h2.28v-1.06a2.62,2.62,0,0,0-.73-1.95,3,3,0,0,0-2.17-.72,3.39,3.39,0,0,0-2.09.63,1.83,1.83,0,0,0-.85,1.52h-2.35a3.22,3.22,0,0,1,.72-2,5.06,5.06,0,0,1,2-1.5,6.63,6.63,0,0,1,2.73-.55,5.45,5.45,0,0,1,3.71,1.17,4.24,4.24,0,0,1,1.39,3.24v6.26a7.63,7.63,0,0,0,.48,3v.2Z" transform="translate(-356.67 -253.03)"/><path class="cls-2" d="M633.32,284.18v12.45a5.8,5.8,0,0,1-1.63,4.24,6.67,6.67,0,0,1-4.41,1.85l-.65,0a6.94,6.94,0,0,1-4.82-1.62,5.82,5.82,0,0,1-1.82-4.46V284.18h2.4v12.4a4.16,4.16,0,0,0,1.11,3.09,4.23,4.23,0,0,0,3.13,1.1,4.27,4.27,0,0,0,3.16-1.1,4.14,4.14,0,0,0,1.09-3.08V284.18Z" transform="translate(-356.67 -253.03)"/><path class="cls-2" d="M646,295.58a6.2,6.2,0,0,0-.93-3.67,3,3,0,0,0-2.65-1.3,3.43,3.43,0,0,0-3.33,2.14v5.88a3.53,3.53,0,0,0,3.35,2.14,3,3,0,0,0,2.62-1.3,6.66,6.66,0,0,0,.94-3.89m2.34.26a8,8,0,0,1-1.45,5,4.62,4.62,0,0,1-3.87,1.89,4.75,4.75,0,0,1-4-1.82l-.12,1.57h-2.15V283.18h2.34v7.2a4.78,4.78,0,0,1,3.91-1.74,4.63,4.63,0,0,1,3.91,1.87,8.29,8.29,0,0,1,1.43,5.13Z" transform="translate(-356.67 -253.03)"/><path class="cls-2" d="M653.06,295.84a5.8,5.8,0,0,0,1.05,3.63,3.59,3.59,0,0,0,5.66,0,6.31,6.31,0,0,0,1.05-3.89,5.71,5.71,0,0,0-1.07-3.62,3.56,3.56,0,0,0-5.63,0,6.27,6.27,0,0,0-1.06,3.92m-2.36-.28a8.06,8.06,0,0,1,.79-3.59,5.91,5.91,0,0,1,2.21-2.47,6.08,6.08,0,0,1,3.22-.86,5.79,5.79,0,0,1,4.52,1.92,7.38,7.38,0,0,1,1.72,5.12v.16a8.05,8.05,0,0,1-.76,3.56,5.7,5.7,0,0,1-2.19,2.46,6.07,6.07,0,0,1-3.27.88,5.77,5.77,0,0,1-4.51-1.92,7.34,7.34,0,0,1-1.73-5.09Z" transform="translate(-356.67 -253.03)"/><path class="cls-2" d="M667.89,295.84a6.07,6.07,0,0,0,1,3.61,3.1,3.1,0,0,0,2.66,1.32,3.43,3.43,0,0,0,3.25-2v-6.21a3.47,3.47,0,0,0-3.22-1.95,3.12,3.12,0,0,0-2.67,1.32,6.61,6.61,0,0,0-1,3.91m-2.35-.26a8,8,0,0,1,1.48-5.06,5.12,5.12,0,0,1,7.83-.12l.12-1.51h2.13v13.27a5.54,5.54,0,0,1-1.57,4.17,5.85,5.85,0,0,1-4.23,1.52,7.09,7.09,0,0,1-2.9-.63,5,5,0,0,1-2.16-1.72l1.21-1.4a4.6,4.6,0,0,0,3.68,1.85,3.61,3.61,0,0,0,2.67-1,3.65,3.65,0,0,0,1-2.69v-1.17a4.79,4.79,0,0,1-3.83,1.61,4.69,4.69,0,0,1-3.89-1.92,8.37,8.37,0,0,1-1.49-5.24" transform="translate(-356.67 -253.03)"/><path class="cls-2" d="M683.18,302.49h-2.34v-13.6h2.34Zm-2.53-17.21a1.39,1.39,0,0,1,.34-1,1.57,1.57,0,0,1,2.07,0,1.36,1.36,0,0,1,.36,1,1.3,1.3,0,0,1-.36.94,1.6,1.6,0,0,1-2.07,0,1.33,1.33,0,0,1-.34-.94" transform="translate(-356.67 -253.03)"/><path class="cls-2" d="M692.41,300.84a3.42,3.42,0,0,0,2.19-.75,2.62,2.62,0,0,0,1-1.89h2.22a4.17,4.17,0,0,1-.81,2.23,5.28,5.28,0,0,1-2,1.68,5.77,5.77,0,0,1-2.64.63,5.68,5.68,0,0,1-4.45-1.85,7.37,7.37,0,0,1-1.65-5.07v-.39a8.15,8.15,0,0,1,.74-3.54,5.53,5.53,0,0,1,2.1-2.4,6,6,0,0,1,3.25-.85,5.46,5.46,0,0,1,3.82,1.37,4.87,4.87,0,0,1,1.63,3.55h-2.22a3.16,3.16,0,0,0-3.23-3,3.3,3.3,0,0,0-2.77,1.27,6,6,0,0,0-1,3.69V296a5.82,5.82,0,0,0,1,3.62,3.27,3.27,0,0,0,2.78,1.27" transform="translate(-356.67 -253.03)"/><path class="cls-2" d="M702.82,290.53a5,5,0,0,1,4-1.89q4.33,0,4.37,4.86v9H708.9v-9a3.16,3.16,0,0,0-.67-2.18,2.74,2.74,0,0,0-2.07-.7,3.4,3.4,0,0,0-2,.6,4.16,4.16,0,0,0-1.34,1.59v9.69h-2.34V283.18h2.34Z" transform="translate(-356.67 -253.03)"/></g></g></g></svg>
